<svg xmlns="http://www.w3.org/2000/svg" viewBox="0 0 14.61 19.37"><defs><style>.cls-1{fill:#fac627;fill-rule:evenodd;}</style></defs><g id="Layer_2" data-name="Layer 2"><g id="Layer_1-2" data-name="Layer 1"><path class="cls-1" d="M4.56,0C5.06,5.8,0,7.8,0,12.91c0,3.47,2.49,6.43,7.3,6.46a7,7,0,0,0,7.31-7.23A9.87,9.87,0,0,0,9.78,3.69,4.16,4.16,0,0,1,8.56,8.37C8.61,5.68,7.65,1.69,4.56,0ZM8.39,10.49c3,3.22,1.17,7.26-1.27,7.26a2.07,2.07,0,0,1-2.25-2.08C4.88,13.71,7.09,13.71,8.39,10.49Z"/></g></g></svg>