<svg xmlns="http://www.w3.org/2000/svg" viewBox="0 0 16.89 14.96"><defs><style>.cls-1{fill:#131313;}</style></defs><g id="Layer_2" data-name="Layer 2"><g id="Layer_1-2" data-name="Layer 1"><path class="cls-1" d="M5.19,4.77A1.76,1.76,0,0,1,3.55,3.63H2.25a3,3,0,0,0,5.88,0H6.83A1.76,1.76,0,0,1,5.19,4.77Z"/><path class="cls-1" d="M5.19,1.24A1.76,1.76,0,0,1,6.83,2.38h1.3a3,3,0,0,0-5.88,0h1.3A1.76,1.76,0,0,1,5.19,1.24Z"/><path class="cls-1" d="M16.27,2.38H8.13A3.18,3.18,0,0,1,8.2,3a3.2,3.2,0,0,1-.07.63h8.14a.63.63,0,0,0,0-1.25Z"/><path class="cls-1" d="M2.25,2.38H.62a.63.63,0,0,0,0,1.25H2.25A3.2,3.2,0,0,1,2.18,3,3.18,3.18,0,0,1,2.25,2.38Z"/><path class="cls-1" d="M8.13,2.38H6.83a1.69,1.69,0,0,1,0,1.25h1.3A3.2,3.2,0,0,0,8.2,3,3.18,3.18,0,0,0,8.13,2.38Z"/><path class="cls-1" d="M3.43,3a1.67,1.67,0,0,1,.12-.62H2.25A3.18,3.18,0,0,0,2.18,3a3.2,3.2,0,0,0,.07.63h1.3A1.68,1.68,0,0,1,3.43,3Z"/><path class="cls-1" d="M11.7,13.72a1.79,1.79,0,0,0,1.65-1.14h1.29a3,3,0,0,1-5.88,0h1.3A1.76,1.76,0,0,0,11.7,13.72Z"/><path class="cls-1" d="M11.7,10.19a1.76,1.76,0,0,0-1.64,1.14H8.76a3,3,0,0,1,5.88,0H13.35A1.79,1.79,0,0,0,11.7,10.19Z"/><path class="cls-1" d="M.62,11.33H8.76a3.29,3.29,0,0,0,0,1.25H.62a.63.63,0,0,1,0-1.25Z"/><path class="cls-1" d="M14.64,11.33h1.63a.63.63,0,0,1,0,1.25H14.64a2.56,2.56,0,0,0,.07-.62A2.59,2.59,0,0,0,14.64,11.33Z"/><path class="cls-1" d="M8.76,11.33h1.3a1.69,1.69,0,0,0,0,1.25H8.76a3.29,3.29,0,0,1,0-1.25Z"/><path class="cls-1" d="M13.46,12a1.9,1.9,0,0,0-.11-.63h1.29a2.59,2.59,0,0,1,.07.63,2.56,2.56,0,0,1-.07.62H13.35A1.88,1.88,0,0,0,13.46,12Z"/></g></g></svg>