<svg xmlns="http://www.w3.org/2000/svg" viewBox="0 0 89.8 21.18"><defs><style>.cls-1{fill:#7733a1;}</style></defs><g id="Layer_2" data-name="Layer 2"><g id="Layer_1-2" data-name="Layer 1"><path class="cls-1" d="M24.34,20.63a10.14,10.14,0,0,1-2.55-.33,6.81,6.81,0,0,1-2.33-1.08,5.37,5.37,0,0,1-1.69-2,6.64,6.64,0,0,1-.64-3.07V12.09A6.94,6.94,0,0,1,17.75,9a5.56,5.56,0,0,1,1.59-2,6.11,6.11,0,0,1,2.15-1.07,9,9,0,0,1,2.31-.31,9.38,9.38,0,0,1,2.37.29A4.65,4.65,0,0,1,28.24,7a5.77,5.77,0,0,1,1.47,2.28,11.11,11.11,0,0,1,.55,3.78c0,.2,0,.45,0,.73s0,.52-.08.72H21.76v0a1.81,1.81,0,0,0,.26,1,2.08,2.08,0,0,0,.66.66,2.62,2.62,0,0,0,.86.36,4,4,0,0,0,.89.1,9,9,0,0,0,1.33-.07,4.45,4.45,0,0,0,.94-.23l.53-.2A2.65,2.65,0,0,1,27.8,16a2.14,2.14,0,0,1,1.11.14,1.36,1.36,0,0,1,.74.75,1.79,1.79,0,0,1,0,1.58,2.91,2.91,0,0,1-1.21,1.2,4.38,4.38,0,0,1-.71.33,8.83,8.83,0,0,1-1,.3,10.1,10.1,0,0,1-1.17.23A10.36,10.36,0,0,1,24.34,20.63ZM23.82,9.4a2.73,2.73,0,0,0-.76.1,1.74,1.74,0,0,0-.64.35,1.93,1.93,0,0,0-.47.64,2.26,2.26,0,0,0-.19,1h4a2.5,2.5,0,0,0-.13-1,1.81,1.81,0,0,0-.41-.64,1.52,1.52,0,0,0-.62-.35A2.64,2.64,0,0,0,23.82,9.4Z"/><path class="cls-1" d="M35.39,9.94h-.77A1.93,1.93,0,0,1,33,9.35,2,2,0,0,1,32.56,8a2.48,2.48,0,0,1,.1-.71A1.78,1.78,0,0,1,33,6.68a1.84,1.84,0,0,1,.65-.45,2.28,2.28,0,0,1,1-.18h.77V3.62a2.37,2.37,0,0,1,.2-1,2,2,0,0,1,.52-.73,2.58,2.58,0,0,1,.74-.42,2.7,2.7,0,0,1,.85-.14,2.77,2.77,0,0,1,.86.14,2.4,2.4,0,0,1,.73.42,2,2,0,0,1,.53.73,2.52,2.52,0,0,1,.2,1V6.05H41.4a2.27,2.27,0,0,1,1,.18,1.76,1.76,0,0,1,.63.45,2,2,0,0,1,.36.63,2.21,2.21,0,0,1,.12.71A2,2,0,0,1,43,9.35a1.94,1.94,0,0,1-1.58.59H40v5.8c0,.36.07.59.22.7a1.06,1.06,0,0,0,.53.19,1.42,1.42,0,0,0,.47,0,2.07,2.07,0,0,1,.56-.06,1.64,1.64,0,0,1,1,.35,1.6,1.6,0,0,1,.56.94,1.93,1.93,0,0,1-.11,1.29,2.2,2.2,0,0,1-.76.89,3.89,3.89,0,0,1-1,.44,4,4,0,0,1-1.22.19,7.73,7.73,0,0,1-2.08-.26,3.85,3.85,0,0,1-1.55-.82,3.49,3.49,0,0,1-1-1.47,7,7,0,0,1-.32-2.25Z"/><path class="cls-1" d="M81.73,9.94H81a1.9,1.9,0,0,1-1.57-.59A2,2,0,0,1,78.9,8a2.48,2.48,0,0,1,.1-.71,1.78,1.78,0,0,1,.35-.63A1.84,1.84,0,0,1,80,6.23a2.27,2.27,0,0,1,1-.18h.78V3.62a2.37,2.37,0,0,1,.2-1,2,2,0,0,1,.52-.73,2.58,2.58,0,0,1,.74-.42A2.7,2.7,0,0,1,84,1.3a2.77,2.77,0,0,1,.86.14,2.4,2.4,0,0,1,.73.42,2,2,0,0,1,.53.73,2.52,2.52,0,0,1,.2,1V6.05h1.38a2.27,2.27,0,0,1,1,.18,1.76,1.76,0,0,1,.63.45,2,2,0,0,1,.36.63A2.21,2.21,0,0,1,89.8,8a2,2,0,0,1-.48,1.33,1.94,1.94,0,0,1-1.58.59H86.36v5.8c0,.36.07.59.22.7a1.06,1.06,0,0,0,.53.19,1.42,1.42,0,0,0,.47,0,2.07,2.07,0,0,1,.56-.06,1.64,1.64,0,0,1,1,.35,1.6,1.6,0,0,1,.56.94,1.93,1.93,0,0,1-.11,1.29,2.2,2.2,0,0,1-.76.89,3.89,3.89,0,0,1-1,.44,4,4,0,0,1-1.22.19,7.73,7.73,0,0,1-2.08-.26A3.85,3.85,0,0,1,83,19.55a3.49,3.49,0,0,1-1-1.47,7,7,0,0,1-.32-2.25Z"/><path class="cls-1" d="M14.22,5a5.24,5.24,0,0,0-1.47-2,6.2,6.2,0,0,0-2.22-1.17,9.64,9.64,0,0,0-2.81-.39H3.65a6.63,6.63,0,0,0-1.75.2,2.46,2.46,0,0,0-1.13.65A2.44,2.44,0,0,0,.18,3.38,7,7,0,0,0,0,5.09V17.32H0v.9a2.59,2.59,0,0,0,.21,1.07A2.13,2.13,0,0,0,.75,20a2.37,2.37,0,0,0,.77.44,2.68,2.68,0,0,0,.89.15,2.64,2.64,0,0,0,.89-.15A2.37,2.37,0,0,0,4.07,20a2,2,0,0,0,.54-.75,2.59,2.59,0,0,0,.21-1.07V14.66h2.9a10,10,0,0,0,2.81-.38,6.2,6.2,0,0,0,2.22-1.17,5.32,5.32,0,0,0,1.47-2,7.26,7.26,0,0,0,.52-2.88v-.4A7.23,7.23,0,0,0,14.22,5ZM10,8.11a2.7,2.7,0,0,1-.17.94,2.46,2.46,0,0,1-.48.79,2.13,2.13,0,0,1-.77.55,2.61,2.61,0,0,1-1,.2H4.82V6.14A.74.74,0,0,1,5,5.6a.82.82,0,0,1,.54-.13h2a2.44,2.44,0,0,1,1,.2,2.13,2.13,0,0,1,.77.55A2.36,2.36,0,0,1,9.78,7,2.7,2.7,0,0,1,10,8Z"/><path class="cls-1" d="M66.36,17.5l-.65-1L63,12.21l3.09-3a1.7,1.7,0,0,0,.46-.75,2.27,2.27,0,0,0-.14-1.77A2,2,0,0,0,65.78,6,2.28,2.28,0,0,0,65,5.62a2.39,2.39,0,0,0-.88,0,2.58,2.58,0,0,0-.84.27,2.52,2.52,0,0,0-.71.54l-4.15,4.56V2.8A2.16,2.16,0,0,0,57.68,1,2.43,2.43,0,0,0,56.07.46a2.64,2.64,0,0,0-.89.15,2.21,2.21,0,0,0-.75.45,2.18,2.18,0,0,0-.53.72,2.47,2.47,0,0,0-.2,1V17.42h0v.87a2.44,2.44,0,0,0,.21,1,2,2,0,0,0,.53.73,2.39,2.39,0,0,0,.74.43,2.77,2.77,0,0,0,.86.14,2.83,2.83,0,0,0,.87-.14,2.39,2.39,0,0,0,.74-.43,2,2,0,0,0,.53-.73,2.44,2.44,0,0,0,.2-1v-.87h0v-.84l1.41-1.36L62,18.87h0l.26.4.19.3a2.3,2.3,0,0,0,.61.66l.08.07a2,2,0,0,0,.8.31,2.26,2.26,0,0,0,.82,0,2.83,2.83,0,0,0,.76-.33h0a2.48,2.48,0,0,0,.61-.55A2.08,2.08,0,0,0,66.5,19a1.9,1.9,0,0,0,0-.86A2.32,2.32,0,0,0,66.36,17.5Z"/><path class="cls-1" d="M76.91,20.29a2,2,0,0,0,1.57-2.42c-.42-2-2.49-1.74-3-4.09L74,6.55c-.53-2.33,1.46-2.95,1-4.94A2,2,0,0,0,72.58.05a2.33,2.33,0,0,0-1.73,1.67A2.24,2.24,0,0,0,68.6.9,2,2,0,0,0,67,3.32c.42,2,2.49,1.74,3,4.08,0,.19,1.5,7,1.55,7.24.53,2.33-1.46,2.95-1,4.93a2,2,0,0,0,2.42,1.57,2.21,2.21,0,0,0,1.72-1.67A2.36,2.36,0,0,0,76.91,20.29Z"/></g></g></svg>