<svg xmlns="http://www.w3.org/2000/svg" viewBox="0 0 52.85 34.21"><defs><style>.cls-1{fill:#7733a1;}.cls-2{fill:#fff;}</style></defs><g id="Layer_2" data-name="Layer 2"><g id="Layer_1-2" data-name="Layer 1"><path class="cls-1" d="M17.11,0H52.85a0,0,0,0,1,0,0V34.21a0,0,0,0,1,0,0H17.11A17.11,17.11,0,0,1,0,17.11v0A17.11,17.11,0,0,1,17.11,0Z"/><path class="cls-2" d="M32.36,18.27h3.45l-.31,1.16H32Zm1-3.48h3.27L37,13.63H33.7Zm-.66,2.32h5.09L38.13,16H33ZM35.81,6.67,35,9H32.71l-4,13.92h-13L10.29,10.15H27.47l-.65,2.32h-13l3.41,8.12H27l4-13.92ZM19,24.07a1.74,1.74,0,1,0,1.74,1.74A1.74,1.74,0,0,0,19,24.07Zm5.8,0a1.74,1.74,0,1,0,1.74,1.74,1.74,1.74,0,0,0-1.74-1.74"/></g></g></svg>